# xmcd
#
# Track frame offsets: 
#        150
#        11627
#        19083
#        29256
#        44549
#        64007
#        76599
#        88514
#        93304
#        119874
#        128887
#        146684
#        156788
#        166843
#        179773
#        190238
#        205550
#        220410
#
# Disc length: 3081 seconds
#
# Revision: 0
# Processed by: cddbd v1.5.2PL0 Copyright (c) Steve Scherf et al.
# Submitted via: ExactAudioCopy v1.1
#
DISCID=f60c0712
DTITLE=Canadian Brass - Christmas Time is Here
DYEAR=2013
DGENRE=Big Band
TTITLE0=Christmas is Coming
TTITLE1=Skating
TTITLE2=O Tannenbaum
TTITLE3=What Child Is This?
TTITLE4=My Little Drum
TTITLE5=Christmas Time Is Here
TTITLE6=Bach's Bells
TTITLE7=Skating
TTITLE8=Fur Elise
TTITLE9=Hark! The Herald Angels Sing
TTITLE10=The Angel Choir and the Trumpeter
TTITLE11=The Christmas Song
TTITLE12=I Saw Three Ships
TTITLE13=Rudolph the Red-Nosed Reindeer
TTITLE14=Frosty the Snowman
TTITLE15=You're a Mean One, Mr. Grinch
TTITLE16=Have Yourself a Merry Little Christmas
TTITLE17=Christmas Is Coming (reprise)
EXTD=
EXTT0=
EXTT1=
EXTT2=
EXTT3=
EXTT4=
EXTT5=
EXTT6=
EXTT7=
EXTT8=
EXTT9=
EXTT10=
EXTT11=
EXTT12=
EXTT13=
EXTT14=
EXTT15=
EXTT16=
EXTT17=
PLAYORDER=
